<svg width="60" height="71" viewBox="0 0 60 71" fill="none" xmlns="http://www.w3.org/2000/svg">
<path d="M30 70.9573C22.0435 70.9573 14.4129 67.7966 8.7868 62.1705C3.16071 56.5444 1.43051e-06 48.9138 1.43051e-06 40.9573C1.43051e-06 32.9906 3.13334 25.3573 8.66667 19.6239L13.6667 24.6239C11.4452 26.7232 9.67788 29.2558 8.47388 32.0651C7.26988 34.8745 6.65481 37.9008 6.66667 40.9573C6.66667 61.7573 31.8 72.1573 46.5 57.4573C61.2 42.7573 50.7667 17.6239 30 17.6239L30 27.6239L16.6667 14.2906L16.6667 13.9573L30 0.957277L30 10.9573C37.9565 10.9573 45.5871 14.118 51.2132 19.7441C56.8393 25.3702 60 33.0008 60 40.9573C60 48.9138 56.8393 56.5444 51.2132 62.1705C45.5871 67.7966 37.9565 70.9573 30 70.9573Z" fill="black"/>
</svg>
