<svg width="60" height="70" viewBox="0 0 60 70" fill="none" xmlns="http://www.w3.org/2000/svg">
<path d="M20.5675 7.5287V0.957275H40.2342V7.5287H20.5675ZM27.1231 43.6716H33.6787V23.9573H27.1231V43.6716ZM30.4009 69.9573C26.3583 69.9573 22.5473 69.1764 18.968 67.6146C15.3887 66.0527 12.2617 63.9313 9.58699 61.2501C6.91014 58.5668 4.7927 55.4311 3.23466 51.8431C1.67662 48.2551 0.898698 44.436 0.900883 40.3858C0.900883 36.3335 1.6799 32.5133 3.23794 28.9253C4.79598 25.3373 6.91233 22.2027 9.58699 19.5216C12.2638 16.8382 15.3919 14.7157 18.9713 13.1538C22.5506 11.592 26.3605 10.8122 30.4009 10.8144C33.7879 10.8144 37.0384 11.362 40.1523 12.4573C43.2662 13.5525 46.1888 15.1406 48.9203 17.2216L53.5092 12.6216L58.0981 17.2216L53.5092 21.8216C55.5851 24.5597 57.1694 27.4894 58.262 30.6108C59.3546 33.7323 59.9009 36.9906 59.9009 40.3858C59.9009 44.4382 59.1219 48.2584 57.5638 51.8464C56.0058 55.4344 53.8894 58.569 51.2148 61.2501C48.5379 63.9335 45.4098 66.056 41.8305 67.6178C38.2512 69.1796 34.4413 69.9595 30.4009 69.9573ZM30.4009 63.3858C36.7379 63.3858 42.1463 61.1406 46.6259 56.6501C51.1055 52.1597 53.3453 46.7382 53.3453 40.3858C53.3453 34.0335 51.1055 28.612 46.6259 24.1216C42.1463 19.6311 36.7379 17.3858 30.4009 17.3858C24.0638 17.3858 18.6555 19.6311 14.1759 24.1216C9.69625 28.612 7.45644 34.0335 7.45644 40.3858C7.45644 46.7382 9.69625 52.1597 14.1759 56.6501C18.6555 61.1406 24.0638 63.3858 30.4009 63.3858Z" fill="black"/>
</svg>
